<svg aria-hidden="true" style="position:absolute;width:0;height:0" xmlns="http://www.w3.org/2000/svg" overflow="hidden">
    <defs>
        <symbol id="icon-Group-261" viewBox="0 0 31 32">
            <path fill="#8a5137" stroke="#8a5137" stroke-width=".727"
                d="M.364 15.672c0 8.435 6.838 15.273 15.273 15.273S30.91 24.107 30.91 15.672C30.91 7.237 24.072.399 15.637.399S.364 7.237.364 15.672z" />
            <path
                d="M17.712 15.779a.363.363 0 0 1 0 .514l-2.314 2.314a.363.363 0 1 1-.514-.514l2.057-2.057-2.057-2.057a.363.363 0 1 1 .514-.514l2.314 2.314zM0 15.672h17.455v.727H0v-.727z" />
        </symbol>
        <symbol id="icon-Group-260" viewBox="0 0 48 32">
            <path stroke="#8a5137" stroke-width=".727"
                d="M30.909 15.672c0 8.435-6.838 15.273-15.273 15.273S.363 24.107.363 15.672C.363 7.237 7.201.399 15.636.399s15.273 6.838 15.273 15.273z" />
            <path fill="#8a5137"
                d="M13.561 15.779a.363.363 0 0 0 0 .514l2.314 2.314a.363.363 0 1 0 .514-.514l-2.057-2.057 2.057-2.057a.363.363 0 1 0-.514-.514l-2.314 2.314zM48 15.672H13.818v.727H48v-.727z" />
        </symbol>
        <symbol id="icon-Group-309" viewBox="0 0 32 32">
            <path fill="none" stroke-width="2.6" stroke="#000"
                d="M21.245 11.273c0 5.508-4.465 9.973-9.973 9.973s-9.973-4.465-9.973-9.973c0-5.508 4.465-9.973 9.973-9.973s9.973 4.465 9.973 9.973zM18.788 18.788 31 31" />
        </symbol>
        <symbol id="icon-Arrow-3" viewBox="0 0 100 32">
            >
            <path fill="#8a5137"
                d="M2.586 14.586a2 2 0 0 0 0 2.828l12.728 12.728a2 2 0 1 0 2.828-2.828L6.828 16 18.142 4.686a2 2 0 1 0-2.828-2.828L2.586 14.586zM100 14H4v4h96v-4z" />
        </symbol>
        <symbol id="icon-Arrow-5" viewBox="0 0 100 32">
            <path fill="#8a5137"
                d="M97.414 14.586a2 2 0 0 1 0 2.828L84.686 30.142a2 2 0 1 1-2.828-2.828L93.172 16 81.858 4.686a2 2 0 1 1 2.828-2.828l12.728 12.728zM0 14h96v4H0v-4z" />
        </symbol>
        <symbol id="icon-instagram-1" viewBox="0 0 32 32">
            <path
                d="M22.111 1.36H8.251C3.74 1.36.07 5.03.07 9.541v13.861c0 4.511 3.67 8.181 8.181 8.181h13.861c4.511 0 8.181-3.67 8.181-8.181V9.541c0-4.511-3.67-8.181-8.181-8.181zm-6.93 23.375c-4.557 0-8.264-3.707-8.264-8.264s3.707-8.264 8.264-8.264c4.557 0 8.264 3.707 8.264 8.264s-3.707 8.264-8.264 8.264zm8.461-14.579c-1.346 0-2.442-1.095-2.442-2.442s1.095-2.442 2.442-2.442c1.346 0 2.442 1.095 2.442 2.442s-1.095 2.442-2.442 2.442z" />
            <path
                d="M15.18 9.979c-3.579 0-6.492 2.912-6.492 6.492s2.912 6.492 6.492 6.492 6.492-2.913 6.492-6.492-2.912-6.492-6.492-6.492zM23.642 7.044c-.369 0-.67.301-.67.67s.301.67.67.67a.67.67 0 0 0 0-1.34z" />
        </symbol>
        <symbol id="icon-twitter" viewBox="0 0 32 32">
            <path
                d="M27.464 10.165a12.51 12.51 0 0 0 3.139-3.251v-.001a13.061 13.061 0 0 1-3.608.989 6.23 6.23 0 0 0 2.756-3.461 12.518 12.518 0 0 1-3.971 1.516 6.26 6.26 0 0 0-10.832 4.281c0 .496.042.974.145 1.428-5.205-.255-9.813-2.749-12.908-6.551a6.312 6.312 0 0 0-.858 3.165 6.268 6.268 0 0 0 2.782 5.204 6.191 6.191 0 0 1-2.829-.771v.069c0 3.043 2.17 5.571 5.017 6.154-.51.14-1.065.206-1.642.206-.401 0-.806-.023-1.185-.107.811 2.479 3.114 4.303 5.851 4.363a12.588 12.588 0 0 1-7.765 2.67c-.513 0-1.005-.023-1.498-.085a17.638 17.638 0 0 0 9.607 2.81c11.051 0 18.253-9.22 17.8-18.629z" />
        </symbol>
        <symbol id="icon-facebook" viewBox="0 0 32 32">
            <path
                d="m22.734 1.368-3.919-.006c-4.403 0-7.248 2.919-7.248 7.438v3.429h-3.94a.616.616 0 0 0-.616.617v4.969c0 .34.276.616.616.616h3.94v12.537c0 .341.276.616.616.616h5.141c.34 0 .616-.276.616-.616V18.431h4.607c.34 0 .616-.276.616-.616l.002-4.969a.619.619 0 0 0-.616-.617H17.94V9.322c0-1.397.333-2.107 2.153-2.107l2.64-.001c.34 0 .616-.276.616-.616V1.984a.615.615 0 0 0-.615-.616z" />
        </symbol>
        <symbol id="icon-waiting" viewBox="0 0 32 32">
            <path fill="#8a5137"
                d="M21.764 28.804v-3.778a8.36 8.36 0 0 0-4.53-7.416 8.342 8.342 0 0 0 4.171-5 .469.469 0 0 0-.896-.272 7.403 7.403 0 0 1-3.986 4.576l-.586.27a.467.467 0 0 0 0 .85l.586.27a7.421 7.421 0 0 1 4.304 6.721v3.666h-1.436v-1.469a.468.468 0 1 0-.936 0v1.469H9.33v-3.666a5.041 5.041 0 0 1 2.924-4.566l1.638-.755 1.638.755a5.041 5.041 0 0 1 2.924 4.566v.202a.468.468 0 1 0 .936 0v-.202a5.982 5.982 0 0 0-3.469-5.417l-1.834-.845a.47.47 0 0 0-.392 0l-1.834.845a5.982 5.982 0 0 0-3.469 5.417v3.666H6.956v-3.666a7.42 7.42 0 0 1 4.304-6.721l.586-.27a.467.467 0 0 0 0-.85l-.586-.27a7.355 7.355 0 0 1-4.096-4.982.468.468 0 0 0-.91.22 8.284 8.284 0 0 0 4.295 5.458 8.361 8.361 0 0 0-4.529 7.416v3.753c-.5.19-.857.673-.857 1.238v.657c0 .731.595 1.325 1.325 1.325h14.743c.731 0 1.325-.595 1.325-1.325v-.657c0-.542-.328-1.009-.795-1.214zm-.141 1.87a.39.39 0 0 1-.389.389H6.491a.39.39 0 0 1-.389-.389v-.657a.39.39 0 0 1 .389-.389h14.743a.39.39 0 0 1 .389.389v.657z" />
            <path fill="#8a5137"
                d="M6.022 6.441v3.607a.468.468 0 1 0 .936 0v-3.52h1.436v3.666a5.982 5.982 0 0 0 3.469 5.417l1.834.845a.462.462 0 0 0 .392 0l1.834-.845a5.997 5.997 0 0 0 3.153-3.509.468.468 0 1 0-.887-.301 5.054 5.054 0 0 1-2.658 2.959l-1.638.755-1.638-.755a5.042 5.042 0 0 1-2.924-4.566V6.528h5.041a.469.469 0 0 0 0-.936H6.49a.389.389 0 0 1-.389-.389v-.657a.39.39 0 0 1 .389-.389h8.113a.468.468 0 1 0 0-.936H6.49c-.731 0-1.325.595-1.325 1.325v.657c0 .566.357 1.049.857 1.238z" />
            <path fill="#8a5137"
                d="M26.582 3.88a.468.468 0 1 0-.894.28 4.608 4.608 0 0 1-4.393 5.982c-2.538 0-4.602-2.065-4.602-4.603S18.758.937 21.296.937c1.357 0 2.638.595 3.516 1.634a.469.469 0 0 0 .715-.605A5.531 5.531 0 0 0 21.296 0c-3.054 0-5.539 2.485-5.539 5.539s2.485 5.539 5.539 5.539a5.546 5.546 0 0 0 5.286-7.198z" />
            <path fill="#8a5137"
                d="M21.296 2.528a.468.468 0 0 0-.468.468v2.453a.68.68 0 0 0 .201.485l1.734 1.734a.467.467 0 1 0 .662-.662l-1.661-1.661V2.996a.468.468 0 0 0-.468-.468z" />
        </symbol>
        <symbol id="icon-treatment" viewBox="0 0 32 32">
            <path fill="#8a5137"
                d="m24.76 3.952 1.173.641.641 1.173a.501.501 0 0 0 .878 0l.641-1.173 1.173-.641a.501.501 0 0 0 0-.878l-1.173-.641-.641-1.173a.501.501 0 0 0-.878 0l-.641 1.173-1.173.641a.501.501 0 0 0 0 .878zm1.781-.712a.501.501 0 0 0 .199-.199l.273-.499.273.499a.501.501 0 0 0 .199.199l.499.273-.499.273a.501.501 0 0 0-.199.199l-.273.499-.273-.499a.501.501 0 0 0-.199-.199l-.499-.273.499-.273zM1.234 12.952l1.173.641.641 1.173a.501.501 0 0 0 .878 0l.641-1.173 1.173-.641a.501.501 0 0 0 0-.878l-1.173-.642-.641-1.173a.501.501 0 0 0-.878 0l-.641 1.173-1.173.642a.501.501 0 0 0 0 .878zm1.781-.712a.501.501 0 0 0 .199-.199l.273-.499.273.499a.501.501 0 0 0 .199.199l.499.273-.499.273a.501.501 0 0 0-.199.199l-.273.499-.273-.499a.501.501 0 0 0-.199-.199l-.499-.273.499-.273zM30.95 30.282l-2.735-5.629-.603-1.811-.949.316.614 1.842a.46.46 0 0 0 .025.061l2.699 5.555v.385h1v-.5a.497.497 0 0 0-.05-.218z" />
            <path fill="#8a5137"
                d="M25.49 25.687a.499.499 0 0 0-.244-.291l-2.043-1.073-2.423-3.382a.75.75 0 0 1 .695.003l1.705.9a.504.504 0 0 0 .565-.068.496.496 0 0 0 .136-.552l-2.282-5.981a.755.755 0 0 1 .232-.934l3.026 4.049.008.01c.247.313.434.669.552 1.051l.003.01.91 2.73.949-.316-.908-2.725a4.221 4.221 0 0 0-.716-1.363l-3.259-4.36a.5.5 0 0 0-.548-.178l-.09.028a1.758 1.758 0 0 0-1.073.941 1.753 1.753 0 0 0-.016 1.427l1.805 4.73-.531-.28a1.745 1.745 0 0 0-2.027.283l-.157.15a.498.498 0 0 0-.061.652l2.762 3.856a.497.497 0 0 0 .174.151l1.966 1.033L26 30.58v.422h1v-.5a.488.488 0 0 0-.024-.152l-1.486-4.661zM9.54 25.002l2.762-3.856a.496.496 0 0 0-.061-.652l-.157-.15a1.743 1.743 0 0 0-2.027-.283l-.531.28 1.805-4.73a1.742 1.742 0 0 0-.016-1.427 1.755 1.755 0 0 0-1.073-.941l-.09-.028a.502.502 0 0 0-.548.178l-3.259 4.361c-.32.407-.562.869-.716 1.363l-1.844 5.536-2.735 5.638a.5.5 0 0 0-.05.218V31h1v-.376l2.699-5.564c.009-.02.018-.04.024-.06l1.856-5.572.003-.01c.118-.381.305-.737.552-1.051l.008-.01 3.026-4.049a.75.75 0 0 1 .242.91l-.01.024-2.282 5.981a.495.495 0 0 0 .136.552.502.502 0 0 0 .565.068l1.705-.9a.742.742 0 0 1 .695-.003l-2.423 3.382-2.043 1.073a.502.502 0 0 0-.244.291l-1.486 4.661a.488.488 0 0 0-.024.152v.5h1v-.422l1.4-4.392 1.966-1.033a.497.497 0 0 0 .174-.151z" />
            <path fill="#8a5137"
                d="M19.018 26.133a.496.496 0 0 0 .384.357l4.5.9.196-.981-4.198-.84-.67-2.437.072-.059c.229.055.463.083.698.083v-1c-1.122 0-2-.947-2-2.156a2.178 2.178 0 0 1 .633-1.556.496.496 0 0 0 .051-.645 2.209 2.209 0 0 1-.417-1.301c0-.862.488-1.639 1.243-1.981a.507.507 0 0 0 .278-.332.49.49 0 0 0-.087-.425.994.994 0 0 1-.065-1.11.996.996 0 0 1 .886-.493.995.995 0 0 1 .503.15.508.508 0 0 0 .53-.002 1.988 1.988 0 0 1 1.055-.306c1.134 0 2.056.967 2.056 2.156a2.23 2.23 0 0 1-.286 1.097l.87.492a3.245 3.245 0 0 0-.118-3.371 5.226 5.226 0 0 0-1.459-6.822l-.146-.106a13.01 13.01 0 0 0-1.04-.683c-.092-1.029-.793-1.971-1.995-2.672-1.209-.705-2.805-1.093-4.495-1.093s-3.286.388-4.495 1.093c-1.203.701-1.903 1.643-1.995 2.672-.355.21-.702.437-1.04.683l-.146.106a5.18 5.18 0 0 0-1.503 1.705l.876.482A4.186 4.186 0 0 1 8.909 6.36l.146-.106a11.8 11.8 0 0 1 13.882 0l.146.106c.799.581 1.369 1.424 1.61 2.382s.14 1.97-.287 2.861a2.98 2.98 0 0 0-1.393-.578c-.404-1.251-1.063-2.258-1.963-2.997-1.027-.843-2.376-1.343-4.01-1.487l-.087.996c2.585.227 4.232 1.383 5.018 3.529a3.02 3.02 0 0 0-.694.246 2.004 2.004 0 0 0-2.651 2.555 3.225 3.225 0 0 0-.973 4.174 3.192 3.192 0 0 0-.658 1.956c0 1.092.501 2.037 1.28 2.602-.805.583-1.598.898-2.28.898s-1.475-.315-2.28-.898c.779-.565 1.28-1.51 1.28-2.602a3.192 3.192 0 0 0-.658-1.956c.377-.694.486-1.503.306-2.272s-.635-1.446-1.279-1.902a1.994 1.994 0 0 0-.481-2.153 1.996 1.996 0 0 0-2.169-.402 2.995 2.995 0 0 0-.693-.246c.39-1.057.999-1.885 1.816-2.466 1.03-.732 2.428-1.103 4.157-1.103v-1c-1.94 0-3.533.433-4.736 1.288-1.064.757-1.83 1.845-2.28 3.239a2.98 2.98 0 0 0-1.393.578 4.224 4.224 0 0 1-.258-2.97l-.963-.271a5.227 5.227 0 0 0 .497 4.012 3.244 3.244 0 0 0-.118 3.371l.87-.492a2.23 2.23 0 0 1-.286-1.097c0-1.189.922-2.156 2.056-2.156.373 0 .739.106 1.055.306a.496.496 0 0 0 .53.002 1.002 1.002 0 0 1 1.266.176.998.998 0 0 1 .058 1.277.506.506 0 0 0-.087.425.49.49 0 0 0 .278.332c.755.342 1.243 1.119 1.243 1.981.002.467-.143.922-.417 1.301a.499.499 0 0 0 .051.645A2.194 2.194 0 0 1 13.993 20c0 1.209-.879 2.156-2 2.156v1c.235 0 .469-.027.698-.082l.072.059-.67 2.437-4.198.84.196.981 4.5-.9a.5.5 0 0 0 .384-.357l.655-2.383c.812.494 1.613.751 2.362.751s1.551-.256 2.363-.751l.655 2.383zM16 3a12.72 12.72 0 0 0-5.25 1.123C11.457 2.909 13.575 2 16 2s4.543.909 5.25 2.123A12.736 12.736 0 0 0 16 3zM19 27.547V27.5h-1v.047a1.617 1.617 0 0 0 1.358 1.603l5.06.843.164-.986-5.06-.843a.625.625 0 0 1-.523-.616zM13 27.547a.623.623 0 0 1-.523.616l-5.06.843.164.986 5.06-.843a1.618 1.618 0 0 0 1.358-1.603v-.047h-1v.047z" />
        </symbol>
        <symbol id="icon-hand-washing" viewBox="0 0 32 32">
            <path fill="#8a5137"
                d="m4.202 20.685 1.61 1.219.04.032 1.04.786 4.127 3.124c.37.278.83.442 1.327.442h4.629a.467.467 0 0 0 0-.935h-4.629c-.707 0-1.282-.575-1.282-1.282s.575-1.282 1.282-1.282h6.443a.467.467 0 0 0 0-.935h-2.255v-2.745a.467.467 0 1 0-.935 0v2.745h-3.253l-.047.001V8.135h3.3v8.982a.467.467 0 0 0 .935 0V8.091a1.612 1.612 0 0 0 1.235-1.566V2.054A2.054 2.054 0 0 0 15.717.002H3.56a.468.468 0 1 0 0 .936h12.157c.616 0 1.117.501 1.117 1.117v2.651h-6.025V3.389a.468.468 0 0 0-.468-.468H8.655a.468.468 0 1 0 0 .936h1.218v2.67c0 .847.658 1.544 1.49 1.605v10.584l-.333-.251a1.564 1.564 0 0 0-2.462.885l-.485-.366A1.853 1.853 0 0 0 5.13 20.22l-.366-.277a1.971 1.971 0 0 0-2.575 2.972l2.751 2.719a.467.467 0 0 0 .657-.665L2.846 22.25c-.204-.202-.314-.471-.308-.759s.127-.552.339-.745a1.036 1.036 0 0 1 1.321-.059zm6.607-14.162v-.885h6.025v.885a.676.676 0 0 1-.675.675h-4.675a.676.676 0 0 1-.675-.675zM9.589 19.33a.628.628 0 0 1 .879-.122l.896.677v1.573l-1.661-1.255a.628.628 0 0 1-.115-.873zm-3.352.575a.918.918 0 0 1 1.284-.179l1.612 1.218.014.012 1.823 1.378c-.494.392-.818.99-.84 1.664l-3.734-2.823a.918.918 0 0 1-.16-1.269zM23.806 31.174l-2.357-1.965a.467.467 0 0 0-.299-.108H10.6a1.974 1.974 0 0 1-1.395-.573L7.021 26.37a.467.467 0 1 0-.657.665l2.184 2.158c.55.544 1.279.843 2.053.843h10.381l2.227 1.857a.464.464 0 0 0 .658-.06.467.467 0 0 0-.06-.658z" />
            <path fill="#8a5137"
                d="M6.663 2.918H3.559a.468.468 0 1 0 0 .935h3.104a.468.468 0 1 0 0-.936zM14.721 12.98V9.84a.467.467 0 0 0-.936 0v3.14a.467.467 0 0 0 .936 0zM13.138 18.613v.989a.468.468 0 1 0 .935 0v-.989a.468.468 0 1 0-.935 0zM18.942 12.329c.365.131 1.335.479 2.08.479.171 0 .331-.018.468-.062.978-.311 1.521-1.36 1.21-2.338s-1.36-1.521-2.338-1.21c-.182.058-.735.234-1.84 1.812-.157.225-.2.503-.117.764s.279.464.537.556zm1.704-2.241a.928.928 0 0 1 .562 1.767c-.195.062-.801-.001-1.871-.378.657-.925 1.115-1.327 1.31-1.389zM20.747 14.608c-.142-.009-.572-.034-1.698.722-.193.13-.312.338-.326.571s.079.453.256.606c1.027.886 1.457.912 1.599.92a1.414 1.414 0 0 0 1.142-2.346 1.4 1.4 0 0 0-.972-.473zm.391 1.438a.479.479 0 0 1-.504.448c-.067-.006-.338-.117-.846-.529.555-.349.837-.424.903-.424a.476.476 0 0 1 .447.505zM6.173 11.686c-.179.416-.185.876-.017 1.296s.489.75.905.929c.084.036.26.112.656.112.349 0 .868-.059 1.646-.254.251-.063.454-.235.556-.473s.088-.503-.039-.729c-.841-1.493-1.323-1.7-1.482-1.768-.416-.179-.876-.185-1.296-.017s-.75.489-.929.905zm.859.37a.755.755 0 0 1 .996-.397c.124.053.462.375.963 1.24-.972.231-1.438.208-1.562.155a.755.755 0 0 1-.397-.997zM30.208 26.619l-3.846-2.902a9.303 9.303 0 0 0-5.567-1.865h-.013a.467.467 0 0 0 0 .935h.013c1.795 0 3.572.595 5.004 1.676l3.846 2.902a.467.467 0 1 0 .563-.747z" />
        </symbol>
        <symbol id="icon-Star-5" viewBox="0 0 34 32">
            <path
                d="m17 0 4.417 10.921 11.751.826-9.022 7.575 2.846 11.431L17 24.514l-9.992 6.239 2.846-11.431-9.022-7.575 11.751-.826L17 0z" />
        </symbol>
        <symbol id="icon-Group-244" viewBox="0 0 29 32">
            <path fill="none" stroke-linejoin="round" stroke-width="1.6" stroke="#000"
                d="M25.493 8.8H3.306L1.599 31.2h25.6L25.492 8.8z" />
            <path fill="none" stroke-width="1.6" stroke="#000"
                d="M8.8 13.6V6.4c0-1.6 1.12-4.8 5.6-4.8 1.6 0 4.8.96 4.8 4.8v7.2" />
        </symbol>
    </defs>
</svg>